<svg xmlns="http://www.w3.org/2000/svg" width="512" height="512" viewBox="0 0 512 512">
  <defs>
    <linearGradient id="bgGradient" x1="0%" y1="0%" x2="100%" y2="100%">
      <stop offset="0%" style="stop-color:#1E40AF"/>
      <stop offset="100%" style="stop-color:#3B82F6"/>
    </linearGradient>
  </defs>
  
  <!-- الخلفية -->
  <rect width="512" height="512" rx="100" fill="url(#bgGradient)"/>
  
  <!-- أيقونة الترجمة -->
  <g transform="translate(106, 106) scale(1.5)">
    <!-- Book/Language icon -->
    <path fill="white" d="M96 32C78.33 32 64 46.33 64 64v288c0 17.67 14.33 32 32 32h32c17.67 0 32-14.33 32-32V64c0-17.67-14.33-32-32-32H96zM160 320H96V64h64v256z"/>
    <path fill="white" d="M224 32c-17.67 0-32 14.33-32 32v288c0 17.67 14.33 32 32 32h32c17.67 0 32-14.33 32-32V64c0-17.67-14.33-32-32-32h-32zM288 320h-64V64h64v256z"/>
    <path fill="white" d="M352 32c-17.67 0-32 14.33-32 32v288c0 17.67 14.33 32 32 32h32c17.67 0 32-14.33 32-32V64c0-17.67-14.33-32-32-32h-32zM416 320h-64V64h64v256z"/>
  </g>
  
  <!-- نصوص AA -->
  <text x="256" y="420" font-family="Arial, sans-serif" font-size="48" font-weight="bold" fill="white" text-anchor="middle">ع / أ</text>
</svg>